<?xml version="1.0" encoding="UTF-8"?>
<svg version="1.1" xmlns="http://www.w3.org/2000/svg" width="480" height="480">
<path d="M0 0 C23.3209964 21.30769739 40.78975403 47.94189547 48.55200195 78.71972656 C49.00361694 80.50068726 49.00361694 80.50068726 49.46435547 82.31762695 C58.55492295 119.08888458 58.55492295 119.08888458 52.86450195 130.46972656 C52.20450195 130.46972656 51.54450195 130.46972656 50.86450195 130.46972656 C50.86450195 129.80972656 50.86450195 129.14972656 50.86450195 128.46972656 C50.28055664 128.18226563 49.69661133 127.89480469 49.0949707 127.59863281 C47.72806177 126.90679974 46.37272214 126.19066521 45.0402832 125.43457031 C39.20771729 122.21871112 33.81118 120.61499541 27.17700195 122.05175781 C24.70383629 122.78148547 22.28654851 123.58659768 19.86450195 124.46972656 C18.87450195 124.79972656 17.88450195 125.12972656 16.86450195 125.46972656 C16.84991943 124.91212646 16.83533691 124.35452637 16.8203125 123.7800293 C15.75297432 87.06435016 3.48350118 56.81965302 -22.13549805 30.46972656 C-22.67480957 29.90850098 -23.21412109 29.34727539 -23.76977539 28.76904297 C-39.77443072 12.37020637 -60.54847106 0.72165408 -82.13549805 -6.53027344 C-83.31233154 -6.93004395 -83.31233154 -6.93004395 -84.51293945 -7.33789062 C-130.8237542 -22.80904333 -182.04687029 -20.50648274 -226.09692383 1.44726562 C-230.21058607 3.62602642 -234.17641113 6.02095799 -238.13549805 8.46972656 C-239.07651367 9.02273437 -240.0175293 9.57574219 -240.98706055 10.14550781 C-247.5998049 14.1379284 -253.38681361 18.84054423 -259.19018555 23.90332031 C-261.43022937 25.85518874 -263.69747078 27.73289519 -266.01049805 29.59472656 C-269.27343987 32.40069619 -271.78007282 35.65138262 -274.33862305 39.09863281 C-276.13549805 41.46972656 -276.13549805 41.46972656 -277.93237305 43.49707031 C-283.04575786 49.33942941 -286.71999821 55.74316522 -290.44799805 62.53222656 C-291.2217981 63.93347778 -291.2217981 63.93347778 -292.01123047 65.36303711 C-296.56110212 73.82581332 -299.24198091 82.17438111 -301.26049805 91.53222656 C-301.42936523 92.28310547 -301.59823242 93.03398437 -301.7722168 93.80761719 C-308.67832945 125.26577601 -301.81724157 157.85270778 -284.69799805 184.90722656 C-280.74291478 190.97071818 -276.09931975 196.22279715 -271.13549805 201.46972656 C-270.10675985 202.69228499 -269.0850806 203.92084463 -268.07299805 205.15722656 C-264.00755414 209.92246 -259.23666886 213.85211287 -254.28393555 217.66503906 C-244.45410526 225.31622622 -244.45410526 225.31622622 -243.13549805 231.46972656 C-243.58553502 239.93218645 -245.95985306 247.90634883 -248.19799805 256.03222656 C-248.579469 257.43635743 -248.96033329 258.84065326 -249.34057617 260.24511719 C-250.26523132 263.65525031 -251.19807266 267.06307876 -252.13549805 270.46972656 C-247.98436125 269.1332473 -244.44177556 267.65349307 -240.69799805 265.40722656 C-239.66030273 264.78976562 -238.62260742 264.17230469 -237.5534668 263.53613281 C-235.15858539 262.08825594 -232.76546821 260.63769417 -230.3737793 259.18457031 C-219.03204999 252.30195789 -219.03204999 252.30195789 -213.76049805 249.46972656 C-213.07213867 249.09847656 -212.3837793 248.72722656 -211.67456055 248.34472656 C-204.24227092 245.78344522 -198.14803375 246.5946123 -190.76049805 248.78222656 C-159.87613864 257.05390823 -123.47726063 256.2906684 -92.8190918 247.49316406 C-89.13549805 246.46972656 -89.13549805 246.46972656 -87.13549805 246.46972656 C-86.9653418 247.32695312 -86.79518555 248.18417969 -86.61987305 249.06738281 C-84.44681969 259.3200335 -81.96486431 266.30099522 -73.13549805 272.46972656 C-70.39001931 273.84023252 -70.39001931 273.84023252 -68.13549805 274.46972656 C-68.13549805 275.45972656 -68.13549805 276.44972656 -68.13549805 277.46972656 C-81.90691292 281.96739374 -95.91402341 284.79542286 -110.13549805 287.46972656 C-110.93971191 287.62248047 -111.74392578 287.77523438 -112.57250977 287.93261719 C-139.58990726 292.79874127 -169.93401934 290.3048152 -196.3815918 283.74023438 C-203.37091802 282.02302923 -207.73557441 281.82691569 -214.0925293 285.39160156 C-215.7621875 286.31199219 -215.7621875 286.31199219 -217.46557617 287.25097656 C-218.62675105 287.90657593 -219.78755652 288.56283 -220.94799805 289.21972656 C-234.13115642 296.56943072 -234.13115642 296.56943072 -240.95654297 299.47265625 C-243.43972653 300.60893879 -245.77948561 301.91318593 -248.15112305 303.26660156 C-267.17931298 314.07872687 -267.17931298 314.07872687 -277.13549805 311.46972656 C-281.62907939 309.25870246 -283.41150866 307.16109152 -285.4128418 302.68847656 C-287.64209842 295.84405623 -285.76940881 288.54749764 -284.7097168 281.61816406 C-283.73538174 274.91857668 -283.18743026 268.16877134 -282.59643555 261.42675781 C-282.33707457 258.48640582 -282.01513155 255.59572209 -281.61206055 252.66894531 C-280.77016376 246.64330513 -280.77016376 246.64330513 -283.07299805 241.15722656 C-284.49317173 239.76787823 -284.49317173 239.76787823 -286.13549805 238.46972656 C-287.38797492 237.41014743 -288.63778362 236.34740962 -289.88549805 235.28222656 C-290.5712793 234.69828125 -291.25706055 234.11433594 -291.96362305 233.51269531 C-295.30928316 230.36560855 -298.07404875 226.80397618 -300.9206543 223.20800781 C-302.88190103 220.78325656 -304.92656628 218.54094651 -307.07299805 216.28222656 C-312.24929641 210.53767189 -316.06533325 203.9060185 -320.02514648 197.29833984 C-320.95128855 195.77309708 -321.91755513 194.27231027 -322.89331055 192.77832031 C-327.58445439 185.52055588 -330.31487939 177.57948619 -333.13549805 169.46972656 C-333.59637342 168.17933979 -334.05730931 166.88897463 -334.51831055 165.59863281 C-345.94490822 132.72150597 -344.91360384 97.92581209 -332.84838867 65.41845703 C-332.20441871 63.65812544 -331.61205519 61.8791238 -331.02612305 60.09863281 C-325.15456973 43.05836393 -313.14338331 24.61972947 -299.9909668 12.25488281 C-298.10499584 10.44038023 -296.4425625 8.5358045 -294.76049805 6.53222656 C-272.78779956 -18.85514805 -240.46908266 -34.27060414 -209.13549805 -44.53027344 C-208.23323486 -44.85374756 -207.33097168 -45.17722168 -206.40136719 -45.51049805 C-202.75481565 -46.64914242 -199.10819495 -47.36500745 -195.3503418 -48.00292969 C-194.61280167 -48.13090439 -193.87526154 -48.25887909 -193.1153717 -48.39073181 C-191.55843988 -48.65941475 -190.00109154 -48.925694 -188.44335938 -49.18969727 C-186.10297615 -49.58767571 -183.7647623 -49.9969166 -181.42651367 -50.40722656 C-116.82706997 -61.57031661 -48.98814869 -43.93543331 0 0 Z " fill="#0082EF" transform="translate(344.135498046875,92.5302734375)"/>
<path d="M0 0 C8.56968131 7.38678844 11.5649511 13.67964388 13.59765625 24.54296875 C16.53274304 38.60362103 22.04269933 49.09396092 31.5625 59.87109375 C33.34765625 62.04296875 33.34765625 62.04296875 34.34765625 65.04296875 C35.67233371 65.72667325 37.00629258 66.39261061 38.34765625 67.04296875 C40.34765625 70.04296875 40.34765625 70.04296875 40.22265625 73.54296875 C39.34765625 77.04296875 39.34765625 77.04296875 37.72265625 79.04296875 C35.10215244 80.14633878 33.12048833 80.47936232 30.30859375 79.93359375 C26.81661954 78.34759749 24.57897002 75.35784084 21.99609375 72.58984375 C10.87677122 61.89692592 -4.03947166 55.1786947 -19.09765625 52.62890625 C-28.18424301 51.01421662 -34.30792673 45.9304863 -40.2421875 39.0703125 C-45.04052584 32.17187039 -44.78675319 23.12539359 -43.65234375 15.04296875 C-40.7969476 6.91372706 -34.82203883 1.4613919 -27.52734375 -2.76953125 C-18.23031459 -6.60960851 -8.15698482 -6.01862945 0 0 Z " fill="#2DBC00" transform="translate(389.65234375,230.95703125)"/>
<path d="M0 0 C6.36380125 4.34629179 10.8448197 9.51149332 13 17 C13.99577556 25.33631575 14.07592655 33.04348427 9 40 C8.2575 41.051875 7.515 42.10375 6.75 43.1875 C0.19147423 49.89508317 -6.0231649 51.60670333 -15.00488281 53.41723633 C-30.42662095 56.6340503 -43.67461628 64.16004776 -54.76611328 75.26831055 C-57.95341436 78.37998636 -60.62417586 80.07271317 -65 81 C-67.94450894 79.69132936 -69.54701431 78.90597137 -71 76 C-71.375 73.1875 -71.375 73.1875 -71 70 C-69.372397 68.29516452 -67.6986066 66.63410256 -66 65 C-54.699309 51.59771231 -47.63518853 39.14506829 -44 22 C-41.64536555 11.94291728 -37.52117778 5.13588989 -28.921875 -0.8125 C-20.05968373 -6.2883255 -8.65695088 -5.44289636 0 0 Z " fill="#0082EF" transform="translate(466,308)"/>
<path d="M0 0 C5.35597767 1.07119553 7.89556661 4.04300395 11.75 7.75 C23.51113833 18.25907997 36.04715113 23.27190838 51.13525391 27.09008789 C60.86383604 29.66698975 69.07703041 34.20418043 74.75 42.75 C78.5209037 49.46335128 79.00086562 57.07606664 77.0234375 64.46484375 C74.17609172 72.16193701 70.16234568 77.84167228 62.75 81.75 C52.93588158 85.41024327 44.12423449 85.21897332 34.4375 81.1875 C28.26002059 77.75699995 23.94623701 71.34847209 21.75 64.75 C21.32236976 62.4849392 20.92985267 60.21311422 20.5625 57.9375 C17.42176978 40.88872809 8.69051451 25.59638083 -4.24609375 14.1015625 C-6.66711013 11.26052574 -7.09505128 9.44877585 -7.25 5.75 C-5.29368306 2.00039253 -4.13937253 0.95523982 0 0 Z " fill="#FB6500" transform="translate(324.25,353.25)"/>
<path d="M0 0 C3 0.5 3 0.5 5.375 2.0625 C7 4.5 7 4.5 7.75 7.75 C6.79387128 12.53064362 4.86949298 13.93155783 1.359375 17.13671875 C-3.17481697 21.67841766 -6.52419707 27.13618896 -10 32.5 C-10.49628906 33.22703125 -10.99257813 33.9540625 -11.50390625 34.703125 C-15.84399616 41.61461615 -17.4237447 49.66574681 -19.46533203 57.47851562 C-22.09125358 67.40665736 -26.06090467 74.74480485 -34 81.5 C-40.63896314 85.26123767 -48.96991608 85.40624652 -56.36328125 84.07421875 C-63.86780973 81.96154493 -69.72732694 76.96935808 -74 70.5 C-77.64584761 61.57346042 -77.86481295 52.85252741 -74.5 43.8125 C-71.113971 36.95425217 -65.04375055 32.01819722 -58.01928711 29.17480469 C-54.94024687 28.14585205 -51.80545587 27.51526227 -48.62792969 26.86572266 C-34.03899184 23.86585576 -23.46179048 18.07598307 -12 8.5 C-11.071875 7.778125 -10.14375 7.05625 -9.1875 6.3125 C-6.9278876 4.54304361 -6.9278876 4.54304361 -5.0625 2.25 C-3 0.5 -3 0.5 0 0 Z " fill="#FFCC00" transform="translate(345,275.5)"/>
</svg>
